<svg xmlns="http://www.w3.org/2000/svg" viewBox="0 0 34.37 34.37"><defs><style>.cls-1{fill:#ffd96a;}</style></defs><title>face-wow</title><g id="Layer_2" data-name="Layer 2"><g id="Layer_1-2" data-name="Layer 1"><path class="cls-1" d="M34.37,17.19A17.18,17.18,0,1,1,17.18,0,17.18,17.18,0,0,1,34.37,17.19"/><path d="M22.24,24.49c0,3.72-2.23,6.75-5,6.75s-5-3-5-6.75,2.23-6.74,5-6.74,5,3,5,6.74"/><path d="M11.66,13.58c-.3,2-1.59,3.48-2.87,3.28s-2.08-2-1.78-4S8.61,9.4,9.89,9.6s2.07,2,1.77,4"/><path d="M23.16,13.58c.3,2,1.59,3.48,2.87,3.28s2.08-2,1.77-4S26.21,9.4,24.93,9.6s-2.08,2-1.77,4"/><path d="M7,6.43a.73.73,0,0,1-.52-.21.72.72,0,0,1,0-1c2.79-2.74,5.09-1.36,5.72-.87a.72.72,0,0,1,.14,1,.71.71,0,0,1-1,.13c-.65-.49-2-1-3.83.76a.73.73,0,0,1-.51.2"/><path d="M27.63,6.43a.73.73,0,0,0,.51-.21.72.72,0,0,0,0-1c-2.78-2.74-5.08-1.36-5.72-.87a.72.72,0,0,0,.88,1.14c.64-.49,2-1,3.83.76a.7.7,0,0,0,.51.2"/></g></g></svg>