<svg xmlns="http://www.w3.org/2000/svg" viewBox="0 0 34.38 34.37"><defs><style>.cls-1{fill:#ffd96a;}.cls-2{fill:#f4506b;}</style></defs><title>face-haha</title><g id="Layer_2" data-name="Layer 2"><g id="Layer_1-2" data-name="Layer 1"><path class="cls-1" d="M34.38,17.19A17.19,17.19,0,1,1,17.19,0,17.19,17.19,0,0,1,34.38,17.19"/><path d="M6.66,14.17a.72.72,0,0,1-.28-1.38l3.34-1.43-3.48-2a.72.72,0,0,1,.71-1.26l4.76,2.68a.73.73,0,0,1-.07,1.3l-4.69,2a.7.7,0,0,1-.28.05"/><path d="M27.66,14.17a.72.72,0,0,0,.29-1.38L24.6,11.36l3.48-2a.72.72,0,0,0-.71-1.26l-4.76,2.68a.73.73,0,0,0-.37.67.72.72,0,0,0,.44.63l4.69,2a.69.69,0,0,0,.28.05"/><path d="M5.66,17.51A11.26,11.26,0,0,0,17.06,28.43,11.26,11.26,0,0,0,28.45,17.51Z"/><path class="cls-2" d="M27.41,22.17a31.15,31.15,0,0,0-10.35-1.69A31.19,31.19,0,0,0,6.7,22.17a11.42,11.42,0,0,0,10.35,6.42,11.41,11.41,0,0,0,10.35-6.42"/></g></g></svg>