<svg xmlns="http://www.w3.org/2000/svg" viewBox="0 0 34.37 34.37"><defs><style>.cls-1{fill:#ffd96a;}.cls-2{fill:#4f90fc;}</style></defs><title>face-sad</title><g id="Layer_2" data-name="Layer 2"><g id="Layer_1-2" data-name="Layer 1"><path class="cls-1" d="M34.37,17.19A17.18,17.18,0,1,1,17.18,0,17.18,17.18,0,0,1,34.37,17.19"/><path d="M11.62,17.76a2.27,2.27,0,0,1-2.14,2.38,2.26,2.26,0,0,1-2.13-2.38,2.26,2.26,0,0,1,2.13-2.38,2.27,2.27,0,0,1,2.14,2.38"/><path d="M6.17,15.35a.66.66,0,0,1-.27-.06.72.72,0,0,1-.4-.94,4.35,4.35,0,0,1,5.69-2.72.72.72,0,0,1,.41.94.71.71,0,0,1-.93.41A2.91,2.91,0,0,0,6.84,14.9a.72.72,0,0,1-.67.45"/><path d="M22.83,17.76A2.26,2.26,0,0,0,25,20.14a2.27,2.27,0,0,0,2.14-2.38A2.27,2.27,0,0,0,25,15.38a2.26,2.26,0,0,0-2.13,2.38"/><path d="M28.28,15.35a.66.66,0,0,0,.27-.06.71.71,0,0,0,.39-.94,4.34,4.34,0,0,0-5.68-2.72.74.74,0,0,0-.42.94.72.72,0,0,0,.94.41,2.92,2.92,0,0,1,3.83,1.92.71.71,0,0,0,.67.45"/><path d="M21.68,27.3a.7.7,0,0,1-.53-.24,5.48,5.48,0,0,0-4-2,5.61,5.61,0,0,0-4.12,2,.72.72,0,0,1-1,0,.69.69,0,0,1,0-1,7,7,0,0,1,5.14-2.44h0a6.79,6.79,0,0,1,5,2.44.7.7,0,0,1-.54,1.18"/><path class="cls-2" d="M29.87,31.27h0c.12-.81-2.75-7-2.75-7s-2.7,6.36-2.67,7.09v.09a2.72,2.72,0,0,0,2.71,2.72,2.77,2.77,0,0,0,2.72-2.78s0-.12,0-.12"/></g></g></svg>