<svg xmlns="http://www.w3.org/2000/svg" viewBox="0 0 34.37 34.37"><defs><style>.cls-1{fill:#558dfd;}.cls-2{fill:#fff;}</style></defs><title>like-blue</title><g id="Layer_2" data-name="Layer 2"><g id="Layer_1-2" data-name="Layer 1"><path class="cls-1" d="M34.37,17.19A17.19,17.19,0,1,1,17.19,0,17.19,17.19,0,0,1,34.37,17.19"/><rect class="cls-2" x="7.89" y="15.34" width="4.88" height="10.3" rx="0.48" ry="0.48"/><path class="cls-2" d="M26.1,18a1.68,1.68,0,0,0-.49-1.28A2.25,2.25,0,0,0,26.26,15c0-.89-.43-1.83-1-1.83H25l-5.14.27a7.22,7.22,0,0,0,.71-1.66c.11-.63.67-3.2.15-4.37a1.36,1.36,0,0,0-2.57.75V9.34c0,.74-1.45,2-2.07,2.52-.37.29-2.27,2.86-2.27,3.89v8c0,.42,1.36.32.84.32h9.82v0c.48,0,.86-.56.86-1.27a1.5,1.5,0,0,0-.4-1.08c.49,0,.88-.55.88-1.24a1.41,1.41,0,0,0-.42-1.06A1.48,1.48,0,0,0,26.1,18m-1.34,1.24h0"/></g></g></svg>