<svg xmlns="http://www.w3.org/2000/svg" viewBox="0 0 21.09 19.91"><defs><style>.cls-1{fill:none;stroke:#6a6667;stroke-linejoin:round;}</style></defs><title>like</title><g id="Layer_2" data-name="Layer 2"><g id="Layer_1-2" data-name="Layer 1"><rect class="cls-1" x="0.5" y="9.15" width="4.86" height="10.26" rx="0.48" ry="0.48"/><path class="cls-1" d="M20.43,11.82a1.66,1.66,0,0,0-.49-1.28,2.24,2.24,0,0,0,.65-1.73c0-.89-.43-1.82-1-1.82h-.26l-5.12.27A7.4,7.4,0,0,0,15,5.6c.11-.63.67-3.19.15-4.35A1.36,1.36,0,0,0,12.55,2V3.17c0,.74-1.45,1.95-2.06,2.51C10.12,6,8.22,8.53,8.22,9.55v7.92c0,.42,1.36.32.84.32h9.79v0c.47,0,.86-.56.86-1.27a1.49,1.49,0,0,0-.4-1.07c.48,0,.88-.55.88-1.24a1.39,1.39,0,0,0-.42-1,1.49,1.49,0,0,0,.66-1.38"/></g></g></svg>